HIERARCHY
ROOT hip
{
	OFFSET 0.000000 0.000000 0.000000 
	CHANNELS 6 Xposition Yposition Zposition Xrotation Zrotation Yrotation
	JOINT abdomen
	{
		OFFSET 0.000000 3.402643 0.000000 
		CHANNELS 3 Xrotation Zrotation Yrotation
		JOINT chest
		{
			OFFSET 0.000000 8.438565 -0.680529 
			CHANNELS 3 Xrotation Zrotation Yrotation
			JOINT neck
			{
				OFFSET 0.000000 10.207942 -0.272212 
				CHANNELS 3 Xrotation Zrotation Yrotation
				JOINT head
				{
					OFFSET 0.000000 3.130431 0.000000 
					CHANNELS 3 Xrotation Zrotation Yrotation
					End Site
					{
						OFFSET 0.000000 3.130435 0.000000 
					}
				}
			}
			JOINT lCollar
			{
				OFFSET 3.470700 6.669187 -0.816635 
				CHANNELS 3 Yrotation Zrotation Xrotation
				JOINT lShldr
				{
					OFFSET 3.198488 0.000000 0.000000 
					CHANNELS 3 Zrotation Yrotation Xrotation
					JOINT lForeArm
					{
						OFFSET 10.139888 0.000000 0.000000 
						CHANNELS 3 Yrotation Zrotation Xrotation
						JOINT lHand
						{
							OFFSET 8.370511 0.000000 0.000000 
							CHANNELS 3 Zrotation Yrotation Xrotation
							End Site
							{
								OFFSET 4.083176 0.000000 0.000000 
							}
						}
					}
				}
			}
			JOINT rCollar
			{
				OFFSET -3.470700 6.669187 -0.816635 
				CHANNELS 3 Yrotation Zrotation Xrotation
				JOINT rShldr
				{
					OFFSET -3.198488 0.000000 0.000000 
					CHANNELS 3 Zrotation Yrotation Xrotation
					JOINT rForeArm
					{
						OFFSET -10.139888 0.000000 0.000000 
						CHANNELS 3 Yrotation Zrotation Xrotation
						JOINT rHand
						{
							OFFSET -8.370511 0.000000 0.000000 
							CHANNELS 3 Zrotation Yrotation Xrotation
							End Site
							{
								OFFSET -4.083176 0.000000 0.000000 
							}
						}
					}
				}
			}
		}
	}
	JOINT lThigh
	{
		OFFSET 5.308129 -1.633274 1.361059 
		CHANNELS 3 Xrotation Zrotation Yrotation
		JOINT lShin
		{
			OFFSET -2.041588 -20.007561 0.000000 
			CHANNELS 3 Xrotation Zrotation Yrotation
			JOINT lFoot
			{
				OFFSET 0.000000 -19.190928 -1.224953 
				CHANNELS 3 Xrotation Yrotation Zrotation
				End Site
				{
					OFFSET 0.000000 -2.449906 4.627600 
				}
			}
		}
	}
	JOINT rThigh
	{
		OFFSET -5.308129 -1.633274 1.361059 
		CHANNELS 3 Xrotation Zrotation Yrotation
		JOINT rShin
		{
			OFFSET 2.041588 -20.007561 0.000000 
			CHANNELS 3 Xrotation Zrotation Yrotation
			JOINT rFoot
			{
				OFFSET 0.000000 -19.190928 -1.224953 
				CHANNELS 3 Xrotation Yrotation Zrotation
				End Site
				{
					OFFSET 0.000000 -2.449906 4.627600 
				}
			}
		}
	}
}
MOTION
Frames: 8
Frame Time: 0.016667
-13.637084 43.080776 -4.298101 3.046875 3.554688 74.268188 15.947264 0.000000 0.000000 -15.283200 -4.052734 2.186810 19.576500 -8.469672 -0.487979 -4.003907 13.964845 -9.199220 -3.070123 -25.000000 -1.556229 -54.851662 -37.734737 116.756508 -24.284578 -4.274792 -5.292547 7.932968 12.037175 -5.208858 19.340883 7.443586 4.545763 82.632690 24.961008 126.473427 25.559359 7.507662 -39.667702 -22.328791 -17.104698 -4.664952 -33.570515 7.657420 -33.839336 47.370914 -0.615386 -8.130427 34.813751 -6.271939 -22.568916 -25.300503 -3.534331 -13.982697 63.849857 -6.046717 -18.719465 -1.387822 -0.297441 2.852470 
-13.725387 43.161835 -4.205114 3.007813 3.242188 75.479065 15.947264 0.000000 0.000000 -15.263668 -3.896484 2.294258 19.099621 -7.995444 -0.748741 -4.189454 14.267578 -10.136718 -2.425556 -25.000000 -1.419692 -55.192684 -37.778862 119.701576 -25.269867 -4.226351 -5.824574 7.089587 11.484397 -5.216394 19.947262 7.663154 4.632257 82.196396 25.075529 127.838875 25.848843 7.564527 -41.867126 -22.913141 -17.127539 -4.640183 -34.112350 6.898424 -35.335255 46.900806 -0.634999 -7.882849 36.173824 -6.378308 -21.975777 -25.222662 -3.924969 -15.369546 63.414707 -6.074950 -18.231367 -1.224005 -0.281076 2.847275 
-13.802819 43.256180 -4.074551 2.714844 3.164063 76.445190 15.947264 0.000000 0.000000 -15.166012 -3.769532 2.450530 18.794289 -7.148250 -0.830018 -4.306641 14.394531 -11.032728 -1.233704 -25.000000 -0.746761 -55.818348 -37.855038 122.839310 -26.483332 -4.399770 -7.010365 6.226209 10.883424 -5.230571 20.661037 8.121550 4.990064 81.807472 25.368567 129.741226 26.263935 7.547300 -44.482815 -23.174353 -17.035805 -4.663607 -34.223354 6.525516 -36.745693 46.349918 -0.599286 -7.695781 37.289654 -6.438844 -21.396564 -24.712204 -4.011651 -16.770952 62.767868 -6.046139 -17.733915 -1.134122 -0.280912 2.741868 
-13.869917 43.367298 -3.901782 2.167969 3.291016 76.962891 15.947264 0.000000 0.000000 -15.058590 -3.681641 2.733748 18.587585 -6.024918 -0.587247 -4.355469 14.384765 -11.875000 0.525423 -25.000000 0.160233 -56.716167 -37.738026 126.524490 -27.841906 -4.677780 -9.426758 5.305214 9.999757 -5.241464 21.708296 8.848751 5.441676 81.362091 25.629375 131.356598 26.616093 7.569477 -46.988823 -23.241938 -17.017818 -4.670002 -33.918903 6.634307 -37.796761 45.917622 -0.615115 -6.935606 38.017857 -6.398590 -20.743536 -23.902260 -3.650780 -17.919292 61.912544 -5.987835 -17.362993 -1.084577 -0.293437 2.432674 
-13.942519 43.497608 -3.726276 1.669922 3.212891 77.275391 15.947264 0.000000 0.000000 -14.999997 -3.564454 3.026737 18.358290 -4.882546 -0.217704 -4.511719 14.316405 -12.666017 2.108643 -25.000000 0.706380 -57.447861 -37.134712 130.296829 -29.009462 -5.026783 -12.535429 4.045435 8.842343 -5.232685 23.079042 9.496165 5.670931 80.850739 25.700985 131.008377 26.658695 7.660342 -47.664902 -23.299694 -17.009378 -4.663266 -33.724705 6.867836 -38.495090 45.539833 -0.608841 -5.752216 38.717545 -6.246105 -19.912973 -23.314318 -3.122171 -18.918207 60.961769 -5.967863 -17.120834 -0.921905 -0.250360 2.092331 
-14.021429 43.642536 -3.577114 1.308594 2.841797 77.763672 15.947264 0.000000 0.000000 -14.999997 -3.378907 3.261143 17.919369 -3.944606 -0.024540 -4.628906 14.287108 -13.405795 3.281170 -25.000000 0.959948 -58.101074 -36.283611 133.604233 -29.656107 -5.296414 -15.365465 2.656734 7.725401 -5.187247 24.380182 9.821996 5.732444 80.371101 25.735123 128.990234 26.446047 7.816288 -46.620770 -23.154861 -16.664158 -4.756909 -33.883842 6.866313 -39.022614 45.121849 -0.608426 -4.345969 39.845551 -5.978276 -18.414862 -23.111649 -2.713468 -19.862915 60.020504 -5.911397 -17.034382 -0.625362 -0.220544 1.767485 
-14.091482 43.798889 -3.440928 0.976563 2.431641 78.437912 15.947264 0.000000 0.000000 -14.970699 -3.164063 3.427195 17.351009 -3.081219 0.002281 -4.687500 14.296874 -14.160157 4.297925 -25.000000 1.354210 -59.153374 -35.626762 136.285568 -29.927021 -5.508039 -17.513227 1.651687 6.972055 -5.146333 25.397722 10.109816 5.815476 79.971581 25.890759 127.094330 26.194002 7.980605 -45.564995 -22.837906 -15.895027 -4.928907 -34.100163 6.631364 -39.602875 44.699356 -0.625089 -2.819403 40.996120 -5.439692 -16.244606 -22.889290 -2.274787 -20.847559 59.021790 -5.840148 -17.194818 -0.372826 -0.200762 1.439438 
-14.150662 43.973747 -3.300502 0.556641 2.089844 79.199219 15.947264 0.000000 0.000000 -14.921871 -2.978516 3.573712 16.976599 -2.127104 -0.023931 -4.912110 14.335937 -14.951173 5.275905 -25.000000 1.783328 -60.468620 -35.070435 138.989426 -30.140215 -5.761416 -20.012943 1.003355 6.493200 -5.098330 26.153795 10.611687 5.875995 79.495079 26.032705 125.658119 26.019985 8.098111 -44.657421 -22.747934 -15.248295 -5.074239 -34.207626 6.270099 -40.189922 44.277149 -0.683677 -1.308011 41.623344 -4.665298 -14.046421 -22.521824 -1.714999 -21.702860 57.870644 -5.732387 -17.617977 -0.076695 -0.203374 0.977901 
